<mxfile host="65bd71144e">
    <diagram id="XW35UehukB2N64vWy9x-" name="Page-1">
        <mxGraphModel dx="1001" dy="815" grid="0" gridSize="10" guides="1" tooltips="1" connect="1" arrows="1" fold="1" page="1" pageScale="1" pageWidth="850" pageHeight="1100" math="0" shadow="0">
            <root>
                <mxCell id="0"/>
                <mxCell id="1" parent="0"/>
                <mxCell id="9" style="edgeStyle=none;html=1;entryX=0.054;entryY=0.714;entryDx=0;entryDy=0;entryPerimeter=0;endArrow=none;endFill=0;" edge="1" parent="1" target="4">
                    <mxGeometry relative="1" as="geometry">
                        <mxPoint x="149" y="409" as="sourcePoint"/>
                    </mxGeometry>
                </mxCell>
                <mxCell id="10" style="edgeStyle=none;html=1;entryX=0.039;entryY=0.771;entryDx=0;entryDy=0;entryPerimeter=0;endArrow=none;endFill=0;" edge="1" parent="1" source="2" target="5">
                    <mxGeometry relative="1" as="geometry"/>
                </mxCell>
                <mxCell id="11" style="edgeStyle=none;html=1;entryX=0;entryY=0.5;entryDx=0;entryDy=0;endArrow=none;endFill=0;" edge="1" parent="1" source="2" target="6">
                    <mxGeometry relative="1" as="geometry"/>
                </mxCell>
                <mxCell id="12" style="edgeStyle=none;html=1;entryX=0;entryY=0;entryDx=0;entryDy=0;endArrow=none;endFill=0;" edge="1" parent="1" source="2" target="7">
                    <mxGeometry relative="1" as="geometry"/>
                </mxCell>
                <mxCell id="13" style="edgeStyle=none;html=1;entryX=0.19;entryY=0.143;entryDx=0;entryDy=0;entryPerimeter=0;endArrow=none;endFill=0;" edge="1" parent="1" source="2" target="8">
                    <mxGeometry relative="1" as="geometry"/>
                </mxCell>
                <mxCell id="2" value="A01 - Usuario" style="shape=umlActor;html=1;verticalLabelPosition=bottom;verticalAlign=top;align=center;" vertex="1" parent="1">
                    <mxGeometry x="118" y="402" width="30" height="60" as="geometry"/>
                </mxCell>
                <mxCell id="4" value="CU02.1 - Visualizar detalles PDI" style="ellipse;whiteSpace=wrap;html=1;" vertex="1" parent="1">
                    <mxGeometry x="257" y="185" width="205" height="70" as="geometry"/>
                </mxCell>
                <mxCell id="5" value="CU02.2 - Eliminar PDI" style="ellipse;whiteSpace=wrap;html=1;" vertex="1" parent="1">
                    <mxGeometry x="257" y="291" width="205" height="70" as="geometry"/>
                </mxCell>
                <mxCell id="6" value="CU02.3 - Añadir PDI" style="ellipse;whiteSpace=wrap;html=1;" vertex="1" parent="1">
                    <mxGeometry x="257" y="397" width="205" height="70" as="geometry"/>
                </mxCell>
                <mxCell id="7" value="CU02.4 - Unirse a ruta calculada" style="ellipse;whiteSpace=wrap;html=1;" vertex="1" parent="1">
                    <mxGeometry x="257" y="503" width="205" height="70" as="geometry"/>
                </mxCell>
                <mxCell id="8" value="CU02.5 - Añadir seguimiento&lt;br&gt;Usuario" style="ellipse;whiteSpace=wrap;html=1;" vertex="1" parent="1">
                    <mxGeometry x="254" y="609" width="205" height="70" as="geometry"/>
                </mxCell>
            </root>
        </mxGraphModel>
    </diagram>
</mxfile>